<svg width="15" height="18" viewBox="0 0 15 18" fill="none" xmlns="http://www.w3.org/2000/svg">
<path d="M6.09091 1V8.27273L8.27273 6.81818L10.4545 8.27273V1M2.81818 13.3636C2.33597 13.3636 1.87351 13.5552 1.53253 13.8962C1.19156 14.2371 1 14.6996 1 15.1818M1 15.1818C1 15.664 1.19156 16.1265 1.53253 16.4675C1.87351 16.8084 2.33597 17 2.81818 17H14.8182M1 15.1818V2.81818C1 2.33597 1.19156 1.87351 1.53253 1.53253C1.87351 1.19156 2.33597 1 2.81818 1H14.0909V13.3687H2.81236M13.7273 13.3636C13.2451 13.3636 12.7826 13.5552 12.4416 13.8962C12.1006 14.2371 11.9091 14.6996 11.9091 15.1818C11.9091 15.664 12.1006 16.1265 12.4416 16.4675C12.7826 16.8084 13.2451 17 13.7273 17" stroke="black" stroke-width="1.5"/>
</svg>
