<svg width="18" height="16" viewBox="0 0 18 16" fill="none" xmlns="http://www.w3.org/2000/svg">
<path fill-rule="evenodd" clip-rule="evenodd" d="M5.4 0.888889C5.4 0.398222 5.7717 0 6.2307 0H11.7693C12.2283 0 12.6 0.398222 12.6 0.888889C12.6 1.37956 12.2283 1.77778 11.7693 1.77778H6.2307C5.7717 1.77778 5.4 1.37956 5.4 0.888889ZM7.0002 16H10.9998C13.8087 16 15.2136 16 16.2225 15.3582C16.6566 15.0826 17.0315 14.7253 17.3259 14.3067C18 13.3467 18 12.0089 18 9.33333C18 6.65778 18 5.32089 17.325 4.36C17.0309 3.94144 16.6563 3.58413 16.2225 3.30844C15.2136 2.66667 13.8087 2.66667 10.9998 2.66667H7.0002C4.1913 2.66667 2.7864 2.66667 1.7775 3.30844C1.34372 3.58415 0.969105 3.94145 0.675 4.36C0 5.32 0 6.65778 0 9.33156V9.33333C0 12.0089 5.96046e-08 13.3458 0.6741 14.3067C0.9657 14.7227 1.3401 15.08 1.7775 15.3582C2.7864 16 4.1913 16 7.0002 16ZM5.2497 9.33333C5.2497 7.36 6.9291 5.76178 9 5.76178C11.0709 5.76178 12.7503 7.36089 12.7503 9.33333C12.7503 11.3058 11.07 12.9049 9 12.9049C6.9291 12.9049 5.2497 11.3049 5.2497 9.33333ZM6.75 9.33333C6.75 8.14933 7.758 7.19111 9 7.19111C10.242 7.19111 11.25 8.15022 11.25 9.33333C11.25 10.5164 10.242 11.4756 9 11.4756C7.758 11.4756 6.75 10.5164 6.75 9.33333ZM14.4999 5.76178C14.0859 5.76178 13.7502 6.08178 13.7502 6.47644C13.7502 6.87022 14.0859 7.19022 14.4999 7.19022H15.0003C15.4143 7.19022 15.75 6.87022 15.75 6.47644C15.75 6.08178 15.4143 5.76178 15.0003 5.76178H14.4999Z" fill="#5AB0FD"/>
</svg>
