<svg width="12" height="11" viewBox="0 0 12 11" fill="none" xmlns="http://www.w3.org/2000/svg">
<path fill-rule="evenodd" clip-rule="evenodd" d="M10.5101 4.97307C10.9684 4.50756 11.223 3.87906 11.2179 3.22583C11.2128 2.5726 10.9484 1.94815 10.4829 1.48986C10.2524 1.26294 9.97948 1.08363 9.67969 0.962192C9.3799 0.84075 9.05912 0.779546 8.73567 0.782074C8.08245 0.787179 7.458 1.05157 6.99971 1.51708C6.87526 1.64153 6.71711 1.79428 6.52525 1.97533L5.99182 2.47765L5.45838 1.97533C5.2661 1.79385 5.10773 1.6411 4.98328 1.51708C4.52138 1.05518 3.8949 0.795687 3.24168 0.795687C2.58845 0.795687 1.96197 1.05518 1.50007 1.51708C0.548572 2.46923 0.537553 4.00861 1.46507 4.96529L5.99182 9.49204L10.5101 4.97307ZM0.949783 0.967442C1.25073 0.666416 1.60803 0.427624 2.00128 0.264705C2.39453 0.101786 2.81602 0.0179318 3.24168 0.0179318C3.66734 0.0179318 4.08883 0.101786 4.48207 0.264705C4.87532 0.427624 5.23262 0.666416 5.53357 0.967442C5.65153 1.08584 5.80428 1.23319 5.99182 1.40949C6.17849 1.23319 6.33124 1.08562 6.45007 0.966794C7.05319 0.354391 7.87488 0.00665852 8.73439 9.46305e-05C9.59389 -0.00646926 10.4208 0.328673 11.0332 0.931793C11.6456 1.53491 11.9933 2.35661 11.9999 3.21611C12.0065 4.07562 11.6713 4.90253 11.0682 5.51493L6.45007 10.1337C6.32852 10.2552 6.16369 10.3235 5.99182 10.3235C5.81995 10.3235 5.65512 10.2552 5.53357 10.1337L0.914134 5.51428C0.321742 4.90333 -0.00657032 4.08388 9.96771e-05 3.23291C0.00676967 2.38194 0.347887 1.56774 0.949783 0.966146V0.967442Z" fill="black"/>
</svg>
