<svg width="16" height="16" viewBox="0 0 16 16" fill="none" xmlns="http://www.w3.org/2000/svg">
<path d="M8 1.14286C4.21315 1.14286 1.14286 4.21314 1.14286 8C1.14286 9.23714 1.46972 10.396 2.04172 11.3971C2.07953 11.4632 2.10376 11.5362 2.11298 11.6117C2.1222 11.6873 2.11624 11.7639 2.09543 11.8371L1.27315 14.728L4.16515 13.9051C4.23837 13.8843 4.31501 13.8784 4.39057 13.8876C4.46613 13.8968 4.53908 13.921 4.60515 13.9589C5.63901 14.5494 6.80939 14.859 8 14.8571C11.7874 14.8571 14.8571 11.7869 14.8571 8C14.8571 4.21314 11.7874 1.14286 8 1.14286ZM6.64233e-06 8C6.64233e-06 3.58171 3.58172 0 8 0C12.4183 0 16 3.58171 16 8C16 12.4183 12.4183 16 8 16C6.64686 16 5.37029 15.6634 4.25143 15.0691L1.09258 15.9674C0.945767 16.009 0.790507 16.0107 0.642836 15.9723C0.495164 15.9338 0.360434 15.8566 0.252562 15.7487C0.14469 15.6408 0.0675867 15.506 0.0292156 15.3583C-0.00915541 15.2106 -0.00740289 15.0554 0.0342923 14.9086L0.932578 11.7503C0.3186 10.5957 -0.00168193 9.30769 6.64233e-06 8ZM4.57143 6.28571C4.57143 6.13416 4.63164 5.98881 4.7388 5.88165C4.84596 5.77449 4.99131 5.71428 5.14286 5.71428H10.8571C11.0087 5.71428 11.154 5.77449 11.2612 5.88165C11.3684 5.98881 11.4286 6.13416 11.4286 6.28571C11.4286 6.43726 11.3684 6.58261 11.2612 6.68977C11.154 6.79694 11.0087 6.85714 10.8571 6.85714H5.14286C4.99131 6.85714 4.84596 6.79694 4.7388 6.68977C4.63164 6.58261 4.57143 6.43726 4.57143 6.28571ZM5.14286 9.14285C4.99131 9.14285 4.84596 9.20306 4.7388 9.31022C4.63164 9.41738 4.57143 9.56273 4.57143 9.71428C4.57143 9.86583 4.63164 10.0112 4.7388 10.1183C4.84596 10.2255 4.99131 10.2857 5.14286 10.2857H8.57143C8.72298 10.2857 8.86833 10.2255 8.97549 10.1183C9.08266 10.0112 9.14286 9.86583 9.14286 9.71428C9.14286 9.56273 9.08266 9.41738 8.97549 9.31022C8.86833 9.20306 8.72298 9.14285 8.57143 9.14285H5.14286Z" fill="black"/>
</svg>
