<svg width="16" height="16" viewBox="0 0 16 16" fill="none" xmlns="http://www.w3.org/2000/svg">
<path fill-rule="evenodd" clip-rule="evenodd" d="M10.9091 5.81818C10.9091 6.58972 10.6026 7.32966 10.057 7.87522C9.51145 8.42078 8.77151 8.72727 7.99997 8.72727C7.22843 8.72727 6.48849 8.42078 5.94293 7.87522C5.39737 7.32966 5.09088 6.58972 5.09088 5.81818C5.09088 5.04664 5.39737 4.3067 5.94293 3.76114C6.48849 3.21558 7.22843 2.90909 7.99997 2.90909C8.77151 2.90909 9.51145 3.21558 10.057 3.76114C10.6026 4.3067 10.9091 5.04664 10.9091 5.81818ZM9.45452 5.81818C9.45452 6.20395 9.30127 6.57392 9.02849 6.8467C8.75571 7.11948 8.38574 7.27272 7.99997 7.27272C7.6142 7.27272 7.24423 7.11948 6.97145 6.8467C6.69867 6.57392 6.54543 6.20395 6.54543 5.81818C6.54543 5.43241 6.69867 5.06244 6.97145 4.78966C7.24423 4.51688 7.6142 4.36363 7.99997 4.36363C8.38574 4.36363 8.75571 4.51688 9.02849 4.78966C9.30127 5.06244 9.45452 5.43241 9.45452 5.81818Z" fill="black"/>
<path fill-rule="evenodd" clip-rule="evenodd" d="M8 0C3.58182 0 0 3.58182 0 8C0 12.4182 3.58182 16 8 16C12.4182 16 16 12.4182 16 8C16 3.58182 12.4182 0 8 0ZM1.45455 8C1.45455 9.52 1.97309 10.9193 2.84218 12.0305C3.45253 11.229 4.23993 10.5795 5.14286 10.1326C6.04579 9.68573 7.03981 9.45367 8.04727 9.45455C9.04169 9.4536 10.0232 9.67965 10.917 10.1155C11.8109 10.5513 12.5934 11.1854 13.2051 11.9695C13.8352 11.143 14.2595 10.1783 14.4428 9.15534C14.6261 8.13234 14.5632 7.08039 14.2593 6.08653C13.9553 5.09268 13.4191 4.18549 12.6949 3.44003C11.9707 2.69457 11.0795 2.13226 10.0948 1.79964C9.11019 1.46702 8.06051 1.37365 7.03263 1.52725C6.00474 1.68085 5.02821 2.07701 4.18383 2.68295C3.33945 3.28888 2.6515 4.08718 2.17689 5.01178C1.70229 5.93638 1.45468 6.9607 1.45455 8ZM8 14.5455C6.49742 14.5477 5.04019 14.0308 3.87491 13.0822C4.34395 12.4107 4.96825 11.8625 5.69469 11.4841C6.42113 11.1058 7.22821 10.9085 8.04727 10.9091C8.85612 10.9084 9.65345 11.1008 10.373 11.4701C11.0926 11.8395 11.7137 12.3752 12.1847 13.0327C11.0104 14.0121 9.52915 14.5476 8 14.5455Z" fill="black"/>
</svg>
