<svg width="14" height="14" viewBox="0 0 14 14" fill="none" xmlns="http://www.w3.org/2000/svg">
<path d="M6.71337 2.92754C6.80049 2.64564 7.19951 2.64564 7.28663 2.92754L8.35107 6.37216C8.38992 6.49787 8.50613 6.58359 8.6377 6.58359H12.1131C12.4001 6.58359 12.5233 6.94779 12.2952 7.12199L9.45809 9.28937C9.35818 9.3657 9.31646 9.49622 9.35358 9.61634L10.4311 13.1032C10.5173 13.3823 10.1945 13.6075 9.96235 13.4302L7.18212 11.3063C7.0746 11.2242 6.9254 11.2242 6.81788 11.3063L4.03765 13.4302C3.80555 13.6075 3.48267 13.3823 3.56891 13.1032L4.64642 9.61634C4.68354 9.49622 4.64182 9.3657 4.54191 9.28937L1.70477 7.12199C1.47674 6.94779 1.59993 6.58359 1.88689 6.58359H5.3623C5.49387 6.58359 5.61008 6.49787 5.64893 6.37216L6.71337 2.92754Z" fill="#5AB0FD"/>
</svg>
